# xmcd CD database file
#
# Track frame offsets:
#	150
#	14442
#	31335
#	58867
#	86165
#	138507
#	155612
#	184230
#	207334
#	221600
#	251625
#
# Disc length: 3824 seconds
#
# Revision: 6
# Processed by: cddbd v1.5PL3 Copyright (c) Steve Scherf et al.
# Submitted via: CDex 1.50
#
DISCID=a30eee0b
DTITLE=ヨーヨー・マ - プレイズ・ピアソラ
DYEAR=1997
DGENRE=Tango
TTITLE0=リベルタンゴ
TTITLE1=タンゴ組曲：アンダンテ
TTITLE2=タンゴ組曲：アレグロ
TTITLE3=スール（南）：愛への帰還
TTITLE4=ル・グラン・タンゴ
TTITLE5=フガータ
TTITLE6=追憶のタンゴ
TTITLE7=ムムーキ
TTITLE8=現実との 3分間
TTITLE9=天使のミロンガ
TTITLE10=カフェ 1930
EXTD=YEAR: 1997
EXTT0=
EXTT1=
EXTT2=
EXTT3=
EXTT4=
EXTT5=
EXTT6=
EXTT7=
EXTT8=
EXTT9=
EXTT10=
PLAYORDER=
